<?xml version="1.0" standalone="no"?>
<!DOCTYPE svg PUBLIC "-//W3C//DTD SVG 20010904//EN"
 "http://www.w3.org/TR/2001/REC-SVG-20010904/DTD/svg10.dtd">
<svg version="1.0" xmlns="http://www.w3.org/2000/svg"
 width="1080.000000pt" height="1080.000000pt" viewBox="0 0 1080.000000 1080.000000"
 preserveAspectRatio="xMidYMid meet">

<g transform="translate(0.000000,1080.000000) scale(0.100000,-0.100000)"
fill="#000000" stroke="none">
<path d="M7475 10438 c-46 -17 -108 -64 -134 -103 -15 -23 -30 -34 -39 -30
-80 31 -423 45 -565 24 -516 -77 -945 -388 -1172 -848 -214 -433 -214 -938 -2
-1368 86 -175 167 -285 315 -430 l105 -103 -68 -151 c-285 -641 -425 -1225
-455 -1905 -43 -987 209 -1986 717 -2832 360 -602 869 -1151 1428 -1543 427
-300 802 -489 1324 -671 495 -172 1091 -268 1653 -268 161 0 218 7 218 25 0
10 -76 14 -327 18 -468 7 -811 53 -1223 163 -1681 450 -3018 1734 -3533 3394
-371 1196 -281 2526 244 3629 l59 123 37 -29 c137 -106 374 -209 593 -258 101
-22 384 -31 503 -16 456 60 889 341 1119 726 166 277 236 545 225 860 -10 311
-95 569 -271 829 l-65 95 32 20 c82 51 417 199 612 270 570 211 1136 311 1758
311 193 0 237 3 237 14 0 54 -730 18 -1140 -55 -490 -88 -1045 -275 -1429
-480 l-93 -51 -107 104 c-58 58 -127 119 -153 137 -44 31 -46 35 -37 64 33
115 -33 262 -145 319 -48 25 -174 34 -221 16z m-380 -138 c50 -6 115 -15 145
-21 l55 -11 0 -91 c0 -75 4 -99 22 -132 63 -118 200 -178 325 -141 63 18 131
64 156 106 l18 29 60 -46 c75 -58 224 -204 218 -214 -2 -4 -39 -26 -81 -50
-152 -83 -433 -271 -594 -398 l-75 -59 -60 39 c-124 82 -311 117 -456 85 -289
-64 -487 -307 -488 -598 0 -42 5 -101 11 -130 14 -68 69 -188 110 -239 31 -40
32 -40 12 -62 -81 -91 -325 -477 -443 -700 -13 -26 -27 -47 -31 -47 -15 0
-224 222 -273 290 -327 454 -377 1053 -130 1554 278 562 891 904 1499 836z
m1107 -655 c310 -458 348 -1038 100 -1527 -77 -152 -164 -271 -287 -393 -260
-258 -574 -403 -940 -435 -197 -17 -427 10 -610 73 -145 50 -407 194 -421 231
-13 34 322 587 448 738 l23 27 60 -46 c191 -147 436 -170 654 -62 156 77 280
233 321 404 16 69 14 228 -5 297 -21 83 -76 186 -129 245 l-46 50 103 80 c126
98 286 208 437 300 170 104 204 122 215 119 6 -1 40 -47 77 -101z"/>
</g>
</svg>
